HIERARCHY
ROOT Hips
{
	OFFSET 53.189201 -9.739275 95.752899
	CHANNELS 6 Xposition Yposition Zposition Xrotation Yrotation Zrotation
	JOINT spine
	{
		OFFSET 0.000000 -0.458069 7.965683
		CHANNELS 3 Xrotation Yrotation Zrotation
		JOINT spine1
		{
			OFFSET 0.000000 -0.000001 10.243103
			CHANNELS 3 Xrotation Yrotation Zrotation
			JOINT spine2
			{
				OFFSET 0.000000 -0.000002 9.814751
				CHANNELS 3 Xrotation Yrotation Zrotation
				JOINT Neck
				{
					OFFSET 0.000000 -1.201384 25.198601
					CHANNELS 3 Xrotation Yrotation Zrotation
					JOINT Head
					{
						OFFSET 0.000000 -0.000002 7.613144
						CHANNELS 3 Xrotation Yrotation Zrotation
						End Site
						{
							OFFSET 0.000000 6.077327 18.428101
						}
					}
				}
				JOINT RightShoulder
				{
					OFFSET -4.132698 0.575449 10.599205
					CHANNELS 3 Xrotation Yrotation Zrotation
					JOINT RightArm
					{
						OFFSET 0.000000 -0.000002 13.901794
						CHANNELS 3 Xrotation Yrotation Zrotation
						JOINT RightArmRoll
						{
							OFFSET 0.000000 -0.000002 7.017883
							CHANNELS 3 Xrotation Yrotation Zrotation
							JOINT RightForeArm
							{
								OFFSET 0.000000 -0.000003 20.440598
								CHANNELS 3 Xrotation Yrotation Zrotation
								JOINT RightForeArmRoll
								{
									OFFSET 0.000000 -0.000001 7.875168
									CHANNELS 3 Xrotation Yrotation Zrotation
									JOINT RightHand
									{
										OFFSET 0.000000 -0.000003 15.803696
										CHANNELS 3 Xrotation Yrotation Zrotation
										End Site
										{
											OFFSET 0.000000 0.000000 0.100006
										}
									}
								}
							}
						}
					}
				}
				JOINT LeftShoulder
				{
					OFFSET 4.132698 0.575449 10.599205
					CHANNELS 3 Xrotation Yrotation Zrotation
					JOINT LeftArm
					{
						OFFSET 0.000000 -0.000002 13.901794
						CHANNELS 3 Xrotation Yrotation Zrotation
						JOINT LeftArmRoll
						{
							OFFSET 0.000000 -0.000002 7.017883
							CHANNELS 3 Xrotation Yrotation Zrotation
							JOINT LeftForeArm
							{
								OFFSET 0.000000 -0.000003 20.440598
								CHANNELS 3 Xrotation Yrotation Zrotation
								JOINT LeftForeArmRoll
								{
									OFFSET 0.000000 -0.000001 7.875168
									CHANNELS 3 Xrotation Yrotation Zrotation
									JOINT LeftHand
									{
										OFFSET 0.000000 -0.000003 15.803696
										CHANNELS 3 Xrotation Yrotation Zrotation
										End Site
										{
											OFFSET 0.000000 0.000000 0.100006
										}
									}
								}
							}
						}
					}
				}
			}
		}
	}
	JOINT RightUpLeg
	{
		OFFSET -7.060478 1.086100 -1.294701
		CHANNELS 3 Xrotation Yrotation Zrotation
		JOINT RightUpLegRoll
		{
			OFFSET 0.000000 -0.000003 18.530800
			CHANNELS 3 Xrotation Yrotation Zrotation
			JOINT RightLeg
			{
				OFFSET 0.000000 0.000004 -22.947601
				CHANNELS 3 Xrotation Yrotation Zrotation
				JOINT RightLegRoll
				{
					OFFSET 0.000000 -0.000004 23.022598
					CHANNELS 3 Xrotation Yrotation Zrotation
					JOINT RightFoot
					{
						OFFSET 0.000000 -0.000004 19.162506
						CHANNELS 3 Xrotation Yrotation Zrotation
						JOINT RightToeBase
						{
							OFFSET 0.000000 -0.000002 16.018799
							CHANNELS 3 Xrotation Yrotation Zrotation
							End Site
							{
								OFFSET 0.006790 0.894206 7.757812
							}
						}
					}
				}
			}
		}
	}
	JOINT LeftUpLeg
	{
		OFFSET 7.060478 1.086100 -1.294701
		CHANNELS 3 Xrotation Yrotation Zrotation
		JOINT LeftUpLegRoll
		{
			OFFSET 0.000000 -0.000003 18.530899
			CHANNELS 3 Xrotation Yrotation Zrotation
			JOINT LeftLeg
			{
				OFFSET 0.000000 -0.000004 22.947502
				CHANNELS 3 Xrotation Yrotation Zrotation
				JOINT LeftLegRoll
				{
					OFFSET 0.000000 -0.000004 23.235504
					CHANNELS 3 Xrotation Yrotation Zrotation
					JOINT LeftFoot
					{
						OFFSET 0.000000 -0.000003 18.949600
						CHANNELS 3 Xrotation Yrotation Zrotation
						JOINT LeftToeBase
						{
							OFFSET 0.000000 -0.000003 16.018799
							CHANNELS 3 Xrotation Yrotation Zrotation
							End Site
							{
								OFFSET -0.030430 0.894206 7.757812
							}
						}
					}
				}
			}
		}
	}
}
MOTION
Frames: 13
Frame Time: 0.041667
53.024097 -12.086413 95.632690 -1.615659 -1.730975 5.830263 -2.222596 0.281552 0.441335 -0.444489 0.553109 0.889206 1.200528 0.563717 0.882509 33.422407 -12.534336 -3.088647 -3.069690 7.136264 -5.325913 -19.846218 -10.696343 -23.995658 -138.895407 -193.270858 -79.368670 0.000001 0.000015 0.000003 55.144813 11.469310 6.163209 0.000001 0.000001 -3.007059 -5.000177 -7.999942 0.000002 28.178352 76.249725 -27.910241 -76.497948 107.417408 50.643739 -0.000002 0.000001 0.000001 2.460736 1.390879 -0.426893 0.000000 0.000001 3.000810 -5.000166 8.000180 0.000019 1.291186 -173.259701 -0.276360 -179.999991 0.000005 -1.157999 169.942442 -2.365125 -0.828359 -0.000007 -0.000001 0.254216 72.868720 6.834136 2.002867 25.885988 -7.355619 0.635008 0.346912 175.611076 1.685703 -0.000005 -0.000005 -1.116691 -4.652418 1.568846 0.228602 -0.000006 -0.000004 -0.023633 69.132470 -6.794157 -2.375120 25.456955 7.355612 -0.000010 
53.024700 -12.081314 95.634399 -1.626041 -1.720310 5.817501 -2.218204 0.283752 0.441296 -0.435724 0.557900 0.889762 1.209300 0.568513 0.883008 33.385913 -12.543782 -3.082931 -3.072167 7.130944 -5.316959 -19.802527 -10.919910 -23.918151 -138.948451 -193.176041 -79.485753 -0.000000 0.000016 0.000002 54.919208 11.504631 6.101551 -0.000000 0.000002 -3.007059 -5.000176 -7.999939 0.000002 28.155899 76.251843 -27.886184 -76.355921 107.414751 50.534196 0.000001 0.000000 -0.000001 2.490950 1.415802 -0.426880 0.000002 0.000001 3.000811 -5.000167 8.000179 0.000018 1.297393 -173.262706 -0.274591 -179.999991 0.000005 -1.158996 169.953234 -2.367181 -0.827267 -0.000006 -0.000001 0.253621 72.850736 6.834796 2.002666 25.887802 -7.355618 0.637852 0.350506 175.607087 1.684804 -0.000005 -0.000004 -1.116709 -4.659012 1.565154 0.229381 -0.000006 -0.000004 -0.023475 69.131247 -6.793285 -2.377532 25.456953 7.355613 -0.000012 
53.031498 -12.075811 95.634506 -1.635510 -1.709517 5.804566 -2.214097 0.285940 0.441214 -0.427527 0.562626 0.890155 1.217491 0.573243 0.883343 33.350475 -12.551885 -3.077446 -3.075047 7.125842 -5.308093 -19.759071 -11.144838 -23.841125 -138.999049 -193.077837 -79.606237 -0.000000 0.000017 0.000002 54.690506 11.538706 6.039329 0.000004 0.000000 -3.007060 -5.000176 -7.999942 0.000002 28.133841 76.255681 -27.862165 -76.221373 107.412142 50.431258 -0.000001 0.000000 0.000000 2.519717 1.440317 -0.426884 -0.000002 0.000001 3.000822 -5.000166 8.000178 0.000016 1.302500 -173.265725 -0.273034 -179.999991 0.000005 -1.158996 169.964135 -2.369225 -0.827164 -0.000006 -0.000001 0.253006 72.832957 6.835433 2.002447 25.889419 -7.355617 0.640476 0.352827 175.603084 1.683971 -0.000005 -0.000004 -1.116730 -4.666077 1.561531 0.230165 -0.000006 -0.000004 -0.023319 69.129984 -6.792269 -2.380223 25.456952 7.355615 -0.000011 
53.032696 -12.061413 95.637894 -1.643981 -1.698594 5.791466 -2.210320 0.288112 0.441076 -0.419972 0.567282 0.890335 1.225052 0.577901 0.883467 33.316553 -12.558408 -3.072092 -3.078495 7.120656 -5.299249 -19.715908 -11.370554 -23.765005 -139.046000 -192.975875 -79.730253 0.000000 0.000015 0.000002 54.459222 11.571112 5.976534 0.000002 0.000001 -3.007059 -5.000172 -7.999943 0.000002 28.111477 76.261569 -27.837312 -76.095547 107.409881 50.335994 -0.000000 0.000001 0.000002 2.546655 1.464264 -0.426909 0.000001 -0.000001 3.000818 -5.000167 8.000179 0.000018 1.306321 -173.269742 -0.271754 -179.999991 0.000005 -1.158996 169.974612 -2.372261 -0.827253 -0.000006 -0.000001 0.252377 72.815602 6.836064 2.002205 25.890935 -7.355621 0.642848 0.353747 175.599082 1.683127 -0.000005 -0.000004 -1.116730 -4.673702 1.558055 0.230956 -0.000006 -0.000004 -0.023166 69.128659 -6.791074 -2.383385 25.456957 7.355613 -0.000011 
53.040199 -12.057611 95.639091 -1.651375 -1.687582 5.778173 -2.206888 0.290268 0.440876 -0.413135 0.571861 0.890261 1.231883 0.582479 0.883337 33.284584 -12.562779 -3.066797 -3.082671 7.115134 -5.290366 -19.673373 -11.595995 -23.690176 -139.088019 -192.869762 -79.859938 0.000000 0.000016 0.000003 54.226033 11.601239 5.913292 -0.000001 0.000003 -3.007060 -5.000177 -7.999939 0.000001 28.089080 76.270264 -27.811813 -75.981572 107.408024 50.251372 -0.000002 0.000000 0.000001 2.571337 1.487472 -0.426947 -0.000000 0.000001 3.000830 -5.000168 8.000178 0.000017 1.308732 -173.272747 -0.270747 -179.999991 0.000005 -1.158995 169.984803 -2.374299 -0.827178 -0.000005 -0.000001 0.251732 72.798799 6.836683 2.001925 25.892253 -7.355622 0.644896 0.353145 175.595079 1.682228 -0.000005 -0.000005 -1.116721 -4.681988 1.554768 0.231749 -0.000006 -0.000004 -0.023016 69.127272 -6.789667 -2.387108 25.456952 7.355613 -0.000010 
53.046101 -12.044311 95.639297 -1.657618 -1.676481 5.764672 -2.203859 0.292407 0.440601 -0.407094 0.576357 0.889885 1.237925 0.586970 0.882907 33.255146 -12.564577 -3.061646 -3.087754 7.108992 -5.281394 -19.631511 -11.820304 -23.617076 -139.124028 -192.759085 -79.993325 0.000000 0.000017 0.000002 53.991665 11.628605 5.849641 0.000001 0.000003 -3.007059 -5.000180 -7.999939 0.000004 28.065876 76.282066 -27.784702 -75.880881 107.406733 50.178569 -0.000002 -0.000000 0.000001 2.593381 1.509781 -0.426995 -0.000000 0.000001 3.000840 -5.000166 8.000178 0.000018 1.309531 -173.275752 -0.270077 -179.999991 0.000004 -1.159992 169.994338 -2.377329 -0.826308 -0.000007 -0.000001 0.251071 72.782646 6.837313 2.001608 25.893457 -7.355609 0.646581 0.350884 175.591077 1.681197 -0.000005 -0.000005 -1.116709 -4.691034 1.551756 0.232544 -0.000006 -0.000004 -0.022870 69.125722 -6.788075 -2.391410 25.456957 7.355613 -0.000010 
53.049500 -12.038515 95.640511 -1.662633 -1.665322 5.750947 -2.201271 0.294527 0.440243 -0.401925 0.580765 0.889164 1.243095 0.591369 0.882133 33.228508 -12.563591 -3.056583 -3.093871 7.101950 -5.272271 -19.590764 -12.042782 -23.546273 -139.152906 -192.643600 -80.131568 0.000001 0.000016 0.000002 53.756632 11.652706 5.785551 0.000005 0.000001 -3.007062 -5.000171 -7.999939 0.000001 28.042172 76.297728 -27.756180 -75.796023 107.406207 50.119983 -0.000003 -0.000000 0.000002 2.612371 1.531008 -0.427051 0.000000 -0.000001 3.000839 -5.000165 8.000178 0.000017 1.308544 -173.278730 -0.269787 -179.999991 0.000005 -1.159994 170.003163 -2.379358 -0.826288 -0.000005 -0.000001 0.250397 72.767326 6.837886 2.001430 25.894364 -7.355618 0.647848 0.346834 175.586077 1.679978 -0.000005 -0.000004 -1.116680 -4.700942 1.549064 0.233340 -0.000006 -0.000004 -0.022728 69.124089 -6.786232 -2.396270 25.456953 7.355613 -0.000010 
53.058601 -12.039111 95.640205 -1.666344 -1.654094 5.736985 -2.199149 0.296627 0.439792 -0.397706 0.585078 0.888052 1.247317 0.595668 0.880968 33.205327 -12.559302 -3.051530 -3.101208 7.093744 -5.262932 -19.551054 -12.262382 -23.478106 -139.173355 -192.522966 -80.274756 0.000001 0.000015 0.000002 53.521724 11.672903 5.721097 0.000005 0.000001 -3.007061 -5.000171 -7.999942 0.000001 28.017385 76.317665 -27.725509 -75.729135 107.406562 50.077376 -0.000001 0.000001 0.000003 2.627912 1.550998 -0.427109 -0.000001 0.000001 3.000853 -5.000163 8.000179 0.000016 1.305624 -173.282719 -0.269938 -179.999991 0.000005 -1.159994 170.011058 -2.382375 -0.825469 -0.000005 -0.000001 0.249708 72.752996 6.838484 2.001098 25.895076 -7.355612 0.648635 0.340875 175.581078 1.678498 -0.000005 -0.000004 -1.116630 -4.711800 1.546767 0.234135 -0.000006 -0.000005 -0.022590 69.122361 -6.784070 -2.401976 25.456952 7.355613 -0.000010 
53.067299 -12.031011 95.642410 -1.668165 -1.642677 5.722665 -2.197699 0.298696 0.439242 -0.394815 0.589253 0.886474 1.250208 0.599823 0.879341 33.186380 -12.551429 -3.046121 -3.110595 7.085091 -5.253126 -19.512809 -12.482097 -23.412727 -139.185267 -192.399448 -80.425744 0.000001 0.000017 0.000003 53.282241 11.689768 5.654972 0.000005 0.000002 -3.007060 -5.000174 -7.999940 0.000003 27.992149 76.343681 -27.692949 -75.687150 107.407744 50.057849 -0.000002 0.000001 0.000001 2.638800 1.570225 -0.427137 0.000000 0.000000 3.000861 -5.000166 8.000178 0.000019 1.299797 -173.285710 -0.270631 -179.999991 0.000005 -1.159993 170.017547 -2.384387 -0.825545 -0.000008 -0.000001 0.248996 72.739834 6.839039 2.000786 25.895481 -7.355614 0.648910 0.332076 175.575081 1.676910 -0.000005 -0.000004 -1.116580 -4.724030 1.544736 0.234946 -0.000006 -0.000004 -0.022458 69.120422 -6.781543 -2.408628 25.456952 7.355613 -0.000011 
53.076801 -12.013116 95.642006 -1.667762 -1.630921 5.707909 -2.197010 0.300728 0.438595 -0.393443 0.593266 0.884425 1.251579 0.603812 0.877242 33.171705 -12.540229 -3.040286 -3.122495 7.076864 -5.242720 -19.475881 -12.705170 -23.349835 -139.189980 -192.275317 -80.586766 0.000003 0.000016 0.000003 53.033841 11.704298 5.586189 0.000005 0.000003 -3.007060 -5.000177 -7.999942 0.000003 27.967364 76.376562 -27.659261 -75.672520 107.409526 50.064064 0.000000 -0.000000 -0.000001 2.644617 1.589237 -0.427111 -0.000001 -0.000001 3.000860 -5.000167 8.000178 0.000018 1.290547 -173.288675 -0.271943 -179.999991 0.000005 -1.161004 170.022451 -2.387382 -0.824865 -0.000007 -0.000001 0.248251 72.727861 6.839578 2.000499 25.895680 -7.355616 0.648735 0.319913 175.570067 1.675401 -0.000005 -0.000004 -1.116510 -4.737841 1.542843 0.235788 -0.000006 -0.000004 -0.022331 69.118229 -6.778582 -2.416513 25.456952 7.355613 -0.000010 
53.073700 -12.007407 95.641701 -1.665427 -1.618899 5.692766 -2.196974 0.302728 0.437863 -0.393382 0.597137 0.881967 1.251650 0.607654 0.874741 33.160763 -12.526120 -3.034037 -3.136411 7.068954 -5.231872 -19.440127 -12.930937 -23.289065 -139.188587 -192.149764 -80.756735 0.000001 0.000014 0.000003 52.778193 11.716793 5.515154 0.000002 0.000003 -3.007060 -5.000176 -7.999943 0.000002 27.942883 76.415207 -27.624558 -75.681208 107.411835 50.092143 0.000001 -0.000001 0.000000 2.646134 1.607955 -0.427041 0.000001 0.000001 3.000872 -5.000164 8.000178 0.000018 1.278370 -173.291653 -0.273786 -179.999991 0.000005 -1.161005 170.026071 -2.390356 -0.825231 -0.000007 -0.000001 0.247479 72.716748 6.840123 2.000162 25.895687 -7.355619 0.648144 0.304844 175.564057 1.673953 -0.000005 -0.000004 -1.116419 -4.752972 1.541065 0.236654 -0.000006 -0.000004 -0.022208 69.115914 -6.775230 -2.425436 25.456952 7.355613 -0.000011 
53.081902 -12.001013 95.640701 -1.661457 -1.606637 5.677313 -2.197490 0.304702 0.437057 -0.394421 0.600890 0.879169 1.250611 0.611373 0.871898 33.152847 -12.509364 -3.027610 -3.151921 7.061281 -5.220716 -19.405413 -13.158937 -23.230134 -139.182385 -192.022053 -80.934504 0.000001 0.000017 0.000003 52.516368 11.727534 5.442331 0.000001 0.000002 -3.007060 -5.000177 -7.999940 0.000001 27.918216 76.458333 -27.588580 -75.708440 107.414526 50.137489 0.000001 0.000000 0.000001 2.644128 1.626319 -0.426924 -0.000002 -0.000001 3.000870 -5.000170 8.000178 0.000017 1.263807 -173.294631 -0.276073 -179.999991 0.000005 -1.161004 170.028776 -2.392354 -0.824469 -0.000006 -0.000000 0.246681 72.706483 6.840650 1.999871 25.895585 -7.355615 0.647207 0.287348 175.558060 1.672557 -0.000005 -0.000005 -1.116329 -4.769205 1.539414 0.237539 -0.000006 -0.000004 -0.022089 69.113523 -6.771594 -2.435010 25.456957 7.355613 -0.000011 
53.091900 -11.992212 95.640907 -1.656110 -1.594207 5.661593 -2.198449 0.306655 0.436186 -0.396355 0.604545 0.876092 1.248672 0.614992 0.868775 33.147120 -12.490515 -3.021129 -3.168560 7.053740 -5.209419 -19.371301 -13.388725 -23.172489 -139.172618 -191.891487 -81.117000 0.000001 0.000015 0.000003 52.249824 11.736793 5.368140 0.000005 0.000002 -3.007059 -5.000180 -7.999940 0.000003 27.893702 76.504997 -27.551924 -75.750056 107.417415 50.196016 0.000001 0.000000 -0.000001 2.639380 1.644265 -0.426779 -0.000001 -0.000000 3.000881 -5.000167 8.000178 0.000015 1.247345 -173.298565 -0.278736 -179.999991 0.000005 -1.161004 170.030852 -2.395329 -0.823904 -0.000007 -0.000001 0.245863 72.696681 6.841236 1.999460 25.895178 -7.355622 0.645936 0.267874 175.551052 1.671203 -0.000005 -0.000004 -1.116230 -4.786298 1.537871 0.238436 -0.000006 -0.000004 -0.021974 69.111037 -6.767669 -2.445335 25.456953 7.355613 -0.000010 
